# xmcd
#
# Track frame offsets: 
#        150
#        17513
#        36109
#        48445
#        62134
#        78358
#        96753
#        112233
#        126286
#        138213
#        154381
#        169768
#
# Disc length: 2494 seconds
#
# Revision: 0
# Processed by: cddbd v1.5.2PL0 Copyright (c) Steve Scherf et al.
# Submitted via: ExactAudioCopy v0.99pb3
#
DISCID=9e09bc0c
DTITLE=Pauline Croze - Un bruit qui court
DYEAR=2007
DGENRE=Pop-Folk
TTITLE0=Faux contacts
TTITLE1=Un bruit qui court
TTITLE2=Décembre
TTITLE3=Les gens qui jasent
TTITLE4=Jour de foule
TTITLE5=Nous voulons vivre
TTITLE6=A l'évidence
TTITLE7=Légère (Soulève-moi)
TTITLE8=La couleur de la mer
TTITLE9=Baiser d'adieu
TTITLE10=Sur ton front
TTITLE11=Valparaiso
EXTD=
EXTT0=
EXTT1=
EXTT2=
EXTT3=
EXTT4=
EXTT5=
EXTT6=
EXTT7=
EXTT8=
EXTT9=
EXTT10=
EXTT11=
PLAYORDER=
